<svg width="158" height="158" viewBox="0 0 158 158" fill="none" xmlns="http://www.w3.org/2000/svg">
<g clip-path="url(#clip0_5_149)">
<path d="M154.23 96.89C155.05 97.22 154.78 98.45 153.9 98.46C141.91 98.53 137.78 99.36 125.27 99.37C124.45 99.37 124.14 100.46 124.84 100.87L148.73 114.91C149.53 115.38 149 116.61 148.1 116.37L118.37 108.53C117.63 108.33 117.05 109.2 117.52 109.8L135.74 133.02C136.3 133.73 135.42 134.68 134.66 134.19L110.65 118.45C110.1 118.09 109.37 118.52 109.4 119.17L110.86 145.99C110.9 146.79 109.87 147.16 109.4 146.51L92.35 122.45C91.99 121.94 91.21 122.03 90.96 122.61L77.57 153.8C77.27 154.51 76.25 154.44 76.06 153.7L66.91 117.71C66.8 117.29 66.37 117.03 65.94 117.14C65.86 117.16 65.79 117.19 65.72 117.23L25.47 141.63C24.72 142.09 23.9 141.19 24.41 140.48L49.26 106.34C49.7 105.74 49.16 104.93 48.44 105.1L11.57 113.86C10.73 114.06 10.22 112.98 10.91 112.45L41.61 88.68C42.13 88.27 41.98 87.45 41.34 87.28L4.03997 77.14C3.17997 76.9 3.30997 75.65 4.19997 75.57L43.76 72.33C44.52 72.2701 44.78 71.2701 44.14 70.86L13.74 51.18C12.96 50.67 13.55 49.46 14.43 49.75L44.27 59.24C45.02 59.48 45.64 58.6 45.15 57.98L12.71 16.47C12.14 15.74 13.09 14.77 13.83 15.33L57.95 48.73C58.54 49.18 59.38 48.64 59.22 47.92L52.27 15.54C52.09 14.69 53.22 14.19 53.71 14.9L75.33 45.99C75.76 46.6 76.73 46.33 76.79 45.58L80.15 3.91004C80.22 3.00004 81.52 2.89004 81.73 3.77004L92.18 48.51C92.33 49.15 93.14 49.34 93.57 48.83L123.43 13.67C124.02 12.98 125.11 13.62 124.79 14.46L109.92 53.18C109.65 53.89 110.41 54.53 111.06 54.15L154.36 28.87C155.16 28.4 155.97 29.42 155.34 30.1L122.16 66.03C121.69 66.54 122.03 67.3501 122.72 67.37L149.66 68.02C150.5 68.04 150.73 69.17 149.97 69.54L122.58 82.6C121.95 82.9 121.97 83.8 122.61 84.06L154.23 96.9V96.89Z" fill="url(#paint0_linear_5_149)"/>
<path d="M108.2 90.34C109.05 90.6399 108.81 91.96 107.91 92C105.59 92.09 103.88 92.24 101.15 92.29C100.33 92.3 100.01 93.4 100.72 93.82L105.97 96.9C106.77 97.37 106.24 98.6 105.34 98.36L98.0999 96.45C97.3399 96.25 96.7699 97.15 97.2699 97.75L102.4 103.74C102.99 104.43 102.14 105.42 101.36 104.95L94.2799 100.61C93.7099 100.26 92.9799 100.73 93.0599 101.4L94.0499 109.61C94.1499 110.41 93.1199 110.85 92.6199 110.21L86.4399 102.33C86.0599 101.85 85.2999 101.96 85.0699 102.53L80.1699 114.28C79.8699 115 78.8099 114.92 78.6499 114.16L75.6699 100.39C75.5799 99.96 75.1499 99.69 74.7199 99.79C74.6499 99.81 74.5799 99.83 74.5099 99.87L59.8599 107.65C59.0899 108.06 58.3199 107.13 58.8699 106.45L67.9899 95.12C68.4499 94.55 67.9699 93.72 67.2499 93.83L57.9699 95.29C57.1499 95.42 56.7099 94.37 57.3799 93.87L64.4399 88.53C64.9699 88.13 64.8199 87.3 64.1799 87.12L52.4899 83.94C51.6299 83.7 51.7599 82.44 52.6499 82.37L64.8199 81.37C65.5699 81.31 65.8399 80.34 65.2299 79.91L57.4299 74.5C56.6899 73.99 57.2499 72.83 58.1199 73.07L67.1799 75.62C67.8999 75.82 68.4899 75.01 68.0699 74.39L56.9199 58.29C56.3899 57.53 57.3899 56.62 58.0999 57.22L71.8899 68.83C72.4399 69.3 73.2899 68.83 73.2099 68.12L71.7399 55.37C71.6399 54.5 72.8099 54.11 73.2399 54.87L82.0399 70.67C82.3299 71.18 83.0499 71.21 83.3899 70.73L92.1699 58.32C92.6299 57.66 93.6699 58.01 93.6199 58.81L92.8699 72.84C92.8499 73.28 93.1799 73.65 93.6199 73.67C93.7799 73.67 93.9299 73.64 94.0699 73.56L108.93 64.88C109.72 64.42 110.53 65.4 109.93 66.09L99.4299 78.1C98.9399 78.66 99.3899 79.51 100.12 79.41L106.58 78.59C107.44 78.48 107.82 79.61 107.08 80.06L98.2199 85.44C97.6399 85.79 97.7199 86.65 98.3599 86.88L108.21 90.32L108.2 90.34Z" fill="#E4FF8A"/>
</g>
<defs>
<linearGradient id="paint0_linear_5_149" x1="78.95" y1="-2.82996" x2="81.5" y2="244.04" gradientUnits="userSpaceOnUse">
<stop stop-color="#13B784"/>
<stop offset="0.6" stop-color="#D5FF8E"/>
<stop offset="1" stop-color="#F9FF84"/>
</linearGradient>
<clipPath id="clip0_5_149">
<rect width="158" height="158" fill="white"/>
</clipPath>
</defs>
</svg>
