<svg width="157" height="157" viewBox="0 0 157 157" fill="none" xmlns="http://www.w3.org/2000/svg">
<path d="M152.569 91.6039C153.466 91.8337 153.29 93.1904 152.361 93.233C141.981 93.7092 137.786 94.5653 126.288 94.9728C125.465 95.002 125.184 96.108 125.906 96.4929L149.296 108.966C150.114 109.403 149.63 110.656 148.723 110.453L119.988 104.032C119.22 103.86 118.677 104.788 119.21 105.361L139.025 126.63C139.643 127.293 138.829 128.32 138.035 127.878L112.651 113.73C112.069 113.406 111.358 113.904 111.461 114.565L115.408 139.844C115.533 140.641 114.525 141.114 114.004 140.504L95.1011 118.366C94.6623 117.852 93.8131 118.096 93.6986 118.769L90.7776 135.929C90.6429 136.72 89.5583 136.861 89.2492 136.127L79.9107 113.964C79.6882 113.436 78.9923 113.318 78.5932 113.741L67.4522 125.536C66.866 126.157 65.8545 125.575 66.1101 124.765L70.7923 109.914C71.0037 109.243 70.315 108.657 69.6828 108.97L35.7304 125.752C34.9588 126.133 34.223 125.211 34.764 124.541L53.0444 101.897C53.513 101.316 53.0177 100.479 52.2876 100.616L24.8584 105.793C23.967 105.961 23.5438 104.76 24.3372 104.313L45.3148 92.5049C46.0484 92.0919 45.7521 90.9831 44.9157 91.0116L31.0232 91.4843C30.0492 91.5175 29.8945 90.1148 30.849 89.9052L51.1932 85.4378C52.0781 85.2434 52.0341 83.9678 51.1388 83.8636L3.3118 78.2929C2.36954 78.1832 2.39176 76.8151 3.33759 76.7053L45.8982 71.7631C46.6508 71.6757 46.8891 70.6934 46.255 70.2923L19.6327 53.4498C18.8579 52.9597 19.4114 51.755 20.2973 52.0032L45.4833 59.0596C46.2741 59.2812 46.8606 58.3041 46.2854 57.7235L15.3768 26.5186C14.7186 25.8541 15.5687 24.7834 16.3718 25.2655L61.0285 52.0756C61.6502 52.4489 62.4194 51.8565 62.2198 51.1582L52.7619 18.0816C52.5141 17.2149 53.6795 16.6499 54.1926 17.3881L75.9146 48.6354C76.3448 49.2542 77.3248 48.9696 77.3741 48.2116L79.427 16.6572C79.4869 15.7366 80.8015 15.6106 81.0069 16.5058L89.9874 55.6554C90.1315 56.2833 90.9269 56.4781 91.3618 55.9919L104.237 41.598C104.778 40.9929 105.763 41.4625 105.618 42.2561L102.293 60.4109C102.164 61.1128 102.947 61.6061 103.534 61.1931L151.791 27.259C152.56 26.7184 153.459 27.6921 152.858 28.4144L123.351 63.8765C122.877 64.4456 123.349 65.2859 124.077 65.1704L146.72 61.5763C147.602 61.4363 148 62.6199 147.218 63.06L126.447 74.7579C125.684 75.1874 126.041 76.342 126.906 76.2468L139.549 74.8564C140.505 74.7512 140.781 76.1053 139.865 76.4087L122.143 82.285C121.381 82.5375 121.402 83.6199 122.173 83.8173L152.569 91.6039Z" fill="url(#paint0_linear_2311_2549)"/>
<path d="M122.068 89.5858C122.973 89.8059 122.809 91.1376 121.874 91.1614L110.181 91.459C109.335 91.4805 109.077 92.6249 109.837 92.982L118.449 97.0271C119.31 97.4315 118.843 98.7393 117.912 98.5313L108.432 96.4129C107.671 96.2429 107.126 97.1549 107.645 97.7318L115.384 106.348C115.992 107.024 115.153 108.039 114.369 107.576L104.215 101.594C103.635 101.251 102.907 101.747 103.008 102.415L104.707 113.658C104.828 114.462 103.806 114.927 103.292 114.303L94.7733 103.936C94.3835 103.462 93.6177 103.598 93.4007 104.181L90.1394 112.939C89.8639 113.678 88.8019 113.635 88.6122 112.876L86.0617 102.677C85.9195 102.108 85.2285 101.892 84.7741 102.275L78.9034 107.215C78.341 107.688 77.5004 107.235 77.5996 106.512L78.8325 97.5307C78.9223 96.8771 78.2276 96.4137 77.6507 96.7424L60.1694 106.702C59.4107 107.135 58.6179 106.232 59.1444 105.535L66.9593 95.1963C67.4012 94.6116 66.9039 93.8011 66.1864 93.9365L54.2477 96.1897C53.3965 96.3503 52.9476 95.2411 53.6645 94.7486L62.0402 88.9943C62.5907 88.6161 62.4785 87.7793 61.8502 87.5773L37.0318 79.5972C36.1811 79.3237 36.3763 78.068 37.2743 78.0375L61.9753 77.1968C62.7757 77.1696 63.0622 76.1171 62.38 75.7103L54.6914 71.1257C53.9221 70.667 54.4004 69.4758 55.2821 69.6546L62.4627 71.1116C63.2068 71.2625 63.7372 70.386 63.2512 69.8085L50.742 54.9448C50.1548 54.247 51.0314 53.2575 51.7997 53.7508L73.7173 67.8241C74.3497 68.2301 75.1542 67.6055 74.9199 66.8904L70.445 53.2368C70.1592 52.3647 71.3424 51.7625 71.8662 52.5135L81.6305 66.5121C82.0767 67.1518 83.0926 66.8191 83.091 66.0337L83.059 50.7401C83.057 49.7894 84.4229 49.6088 84.6396 50.5311L88.9495 68.8748C89.1114 69.5637 90.0292 69.7019 90.4076 69.0943L95.4004 61.0777C95.8458 60.3625 96.9438 60.7082 96.8769 61.5425L95.9568 73.007C95.9028 73.6788 96.6535 74.0995 97.2091 73.7087L118.51 58.7297C119.29 58.1811 120.193 59.1875 119.562 59.9029L106.021 75.2624C105.517 75.8335 106.004 76.707 106.75 76.5709L116.465 74.7984C117.354 74.6361 117.772 75.8336 116.981 76.2789L110.084 80.1633C109.321 80.5928 109.678 81.7474 110.543 81.6522L111.552 81.5413C112.507 81.4362 112.783 82.7902 111.868 83.0937L107.538 84.5292C106.772 84.7833 106.8 85.8747 107.578 86.0638L122.068 89.5858Z" fill="#FFE2AE"/>
<path d="M122.068 89.5858C122.973 89.8059 122.809 91.1376 121.874 91.1614L110.181 91.459C109.335 91.4805 109.077 92.6249 109.837 92.982L118.449 97.0271C119.31 97.4315 118.843 98.7393 117.912 98.5313L108.432 96.4129C107.671 96.2429 107.126 97.1549 107.645 97.7318L115.384 106.348C115.992 107.024 115.153 108.039 114.369 107.576L104.215 101.594C103.635 101.251 102.907 101.747 103.008 102.415L104.707 113.658C104.828 114.462 103.806 114.927 103.292 114.303L94.7733 103.936C94.3835 103.462 93.6177 103.598 93.4007 104.181L90.1394 112.939C89.8639 113.678 88.8019 113.635 88.6122 112.876L86.0617 102.677C85.9195 102.108 85.2285 101.892 84.7741 102.275L78.9034 107.215C78.341 107.688 77.5004 107.235 77.5996 106.512L78.8325 97.5307C78.9223 96.8771 78.2276 96.4137 77.6507 96.7424L60.1694 106.702C59.4107 107.135 58.6179 106.232 59.1444 105.535L66.9593 95.1963C67.4012 94.6116 66.9039 93.8011 66.1864 93.9365L54.2477 96.1897C53.3965 96.3503 52.9476 95.2411 53.6645 94.7486L62.0402 88.9943C62.5907 88.6161 62.4785 87.7793 61.8502 87.5773L37.0318 79.5972C36.1811 79.3237 36.3763 78.068 37.2743 78.0375L61.9753 77.1968C62.7757 77.1696 63.0622 76.1171 62.38 75.7103L54.6914 71.1257C53.9221 70.667 54.4004 69.4758 55.2821 69.6546L62.4627 71.1116C63.2068 71.2625 63.7372 70.386 63.2512 69.8085L50.742 54.9448C50.1548 54.247 51.0314 53.2575 51.7997 53.7508L73.7173 67.8241C74.3497 68.2301 75.1542 67.6055 74.9199 66.8904L70.445 53.2368C70.1592 52.3647 71.3424 51.7625 71.8662 52.5135L81.6305 66.5121C82.0767 67.1518 83.0926 66.8191 83.091 66.0337L83.059 50.7401C83.057 49.7894 84.4229 49.6088 84.6396 50.5311L88.9495 68.8748C89.1114 69.5637 90.0292 69.7019 90.4076 69.0943L95.4004 61.0777C95.8458 60.3625 96.9438 60.7082 96.8769 61.5425L95.9568 73.007C95.9028 73.6788 96.6535 74.0995 97.2091 73.7087L118.51 58.7297C119.29 58.1811 120.193 59.1875 119.562 59.9029L106.021 75.2624C105.517 75.8335 106.004 76.707 106.75 76.5709L116.465 74.7984C117.354 74.6361 117.772 75.8336 116.981 76.2789L110.084 80.1633C109.321 80.5928 109.678 81.7474 110.543 81.6522L111.552 81.5413C112.507 81.4362 112.783 82.7902 111.868 83.0937L107.538 84.5292C106.772 84.7833 106.8 85.8747 107.578 86.0638L122.068 89.5858Z" fill="white"/>
<path d="M122.068 89.5858C122.973 89.8059 122.809 91.1376 121.874 91.1614L110.181 91.459C109.335 91.4805 109.077 92.6249 109.837 92.982L118.449 97.0271C119.31 97.4315 118.843 98.7393 117.912 98.5313L108.432 96.4129C107.671 96.2429 107.126 97.1549 107.645 97.7318L115.384 106.348C115.992 107.024 115.153 108.039 114.369 107.576L104.215 101.594C103.635 101.251 102.907 101.747 103.008 102.415L104.707 113.658C104.828 114.462 103.806 114.927 103.292 114.303L94.7733 103.936C94.3835 103.462 93.6177 103.598 93.4007 104.181L90.1394 112.939C89.8639 113.678 88.8019 113.635 88.6122 112.876L86.0617 102.677C85.9195 102.108 85.2285 101.892 84.7741 102.275L78.9034 107.215C78.341 107.688 77.5004 107.235 77.5996 106.512L78.8325 97.5307C78.9223 96.8771 78.2276 96.4137 77.6507 96.7424L60.1694 106.702C59.4107 107.135 58.6179 106.232 59.1444 105.535L66.9593 95.1963C67.4012 94.6116 66.9039 93.8011 66.1864 93.9365L54.2477 96.1897C53.3965 96.3503 52.9476 95.2411 53.6645 94.7486L62.0402 88.9943C62.5907 88.6161 62.4785 87.7793 61.8502 87.5773L37.0318 79.5972C36.1811 79.3237 36.3763 78.068 37.2743 78.0375L61.9753 77.1968C62.7757 77.1696 63.0622 76.1171 62.38 75.7103L54.6914 71.1257C53.9221 70.667 54.4004 69.4758 55.2821 69.6546L62.4627 71.1116C63.2068 71.2625 63.7372 70.386 63.2512 69.8085L50.742 54.9448C50.1548 54.247 51.0314 53.2575 51.7997 53.7508L73.7173 67.8241C74.3497 68.2301 75.1542 67.6055 74.9199 66.8904L70.445 53.2368C70.1592 52.3647 71.3424 51.7625 71.8662 52.5135L81.6305 66.5121C82.0767 67.1518 83.0926 66.8191 83.091 66.0337L83.059 50.7401C83.057 49.7894 84.4229 49.6088 84.6396 50.5311L88.9495 68.8748C89.1114 69.5637 90.0292 69.7019 90.4076 69.0943L95.4004 61.0777C95.8458 60.3625 96.9438 60.7082 96.8769 61.5425L95.9568 73.007C95.9028 73.6788 96.6535 74.0995 97.2091 73.7087L118.51 58.7297C119.29 58.1811 120.193 59.1875 119.562 59.9029L106.021 75.2624C105.517 75.8335 106.004 76.707 106.75 76.5709L116.465 74.7984C117.354 74.6361 117.772 75.8336 116.981 76.2789L110.084 80.1633C109.321 80.5928 109.678 81.7474 110.543 81.6522L111.552 81.5413C112.507 81.4362 112.783 82.7902 111.868 83.0937L107.538 84.5292C106.772 84.7833 106.8 85.8747 107.578 86.0638L122.068 89.5858Z" fill="#2A9659"/>
<path d="M21 95.1161V61H42.6922C50.0728 61 53.7447 63.9051 53.7447 69.2507C53.7447 73.6304 51.4516 76.7346 45.2433 76.9926V77.5014C52.0636 77.7521 55.3226 80.9152 55.3226 85.6488C55.3226 91.4 52.012 95.1235 43.8645 95.1235H21V95.1161ZM30.5189 73.9327H41.6673C43.6064 73.9327 44.1668 73.3723 44.1668 71.7945C44.1668 70.2166 43.4 69.6046 41.4166 69.6046H30.5189V73.9327ZM30.5189 86.5115H42.6405C44.9336 86.5115 45.6415 86.0544 45.6415 84.1226C45.6415 82.1908 44.9779 81.7779 42.6405 81.7779H30.5189V86.5115Z" fill="white"/>
<path d="M56.3447 95.1161V61H76.2599C85.2701 61 90.0111 64.7677 90.0111 71.4332C90.0111 76.8304 87.3125 80.0452 80.7945 80.8562V81.365C84.3116 82.2793 85.4249 83.9604 86.7005 86.5631L90.9254 95.1161H79.8729L75.8028 86.7622C74.5788 84.2184 73.5613 83.5032 69.8452 83.5032H65.9226V95.1161H56.3447ZM65.9153 76.3806H76.1494C78.9512 76.3806 79.9687 75.8719 79.9687 72.9668C79.9687 70.2682 78.9512 69.6046 76.1494 69.6046H65.9153V76.3806Z" fill="white"/>
<path d="M91.4316 95.1161V61H104.416L110.683 75.1567L114.045 83.9677H114.709L117.916 75.1567L123.874 61H136.858V95.1161H127.288V81.0111L127.642 75.3115H126.978L125.046 81.0111L119.951 93.0811H108.339L103.244 81.0111L101.312 75.3115H100.648L101.01 81.0111V95.1161H91.4316Z" fill="white"/>
<defs>
<linearGradient id="paint0_linear_2311_2549" x1="117.105" y1="12.5" x2="117.747" y2="142.934" gradientUnits="userSpaceOnUse">
<stop stop-color="#007E57"/>
<stop offset="0.765" stop-color="#B4E75F"/>
</linearGradient>
</defs>
</svg>
