<svg width="551" height="125" viewBox="0 0 551 125" fill="none" xmlns="http://www.w3.org/2000/svg">
<g clip-path="url(#clip0_31_9)">
<path d="M149.74 77.34C139.36 77.82 135.17 78.67 123.67 79.08C122.85 79.11 122.57 80.22 123.29 80.6L146.68 93.07C147.5 93.51 147.01 94.76 146.11 94.56L117.37 88.14C116.6 87.97 116.06 88.9 116.59 89.47L136.41 110.74C137.03 111.4 136.21 112.43 135.42 111.99L110.03 97.84C109.45 97.51 108.74 98.01 108.84 98.67L112.79 123.95C112.91 124.75 111.91 125.22 111.39 124.61L92.49 102.47C92.05 101.96 91.2 102.2 91.09 102.87L88.17 120.03C88.04 120.82 86.95 120.96 86.64 120.23L77.3 98.07C77.08 97.54 76.38 97.42 75.98 97.85L64.84 109.64C64.25 110.26 63.24 109.68 63.5 108.87L68.18 94.02C68.39 93.35 67.7 92.76 67.07 93.08L33.12 109.86C32.35 110.24 31.61 109.32 32.15 108.65L50.43 86.01C50.9 85.43 50.4 84.59 49.67 84.73L22.24 89.91C21.35 90.08 20.93 88.88 21.72 88.43L42.7 76.62C43.43 76.21 43.14 75.1 42.3 75.13L28.41 75.6C27.44 75.63 27.28 74.23 28.24 74.02L48.58 69.55C49.14 69.43 49.33 68.87 49.16 68.45L59.24 71.69C59.87 71.89 59.98 72.73 59.43 73.11L51.05 78.86C50.33 79.35 50.78 80.46 51.63 80.3L63.57 78.05C64.29 77.91 64.78 78.73 64.34 79.31L56.53 89.65C56 90.35 56.8 91.25 57.55 90.82L75.03 80.86C75.61 80.53 76.3 80.99 76.21 81.65L74.98 90.63C74.88 91.35 75.72 91.81 76.28 91.33L82.15 86.39C82.6 86.01 83.3 86.22 83.44 86.79L85.99 96.99C86.18 97.75 87.24 97.79 87.52 97.05L90.78 88.29C91 87.71 91.76 87.57 92.15 88.04L100.67 98.41C101.18 99.03 102.21 98.57 102.08 97.77L100.38 86.53C100.28 85.86 101.01 85.37 101.59 85.71L111.74 91.69C112.53 92.15 113.36 91.14 112.76 90.46L105.02 81.84C104.5 81.26 105.05 80.35 105.81 80.52L115.29 82.64C116.22 82.85 116.69 81.54 115.83 81.14L107.22 77.09C106.46 76.73 106.72 75.59 107.56 75.57L119.25 75.27C120.19 75.25 120.35 73.91 119.44 73.69L104.95 70.17C104.17 69.98 104.14 68.89 104.91 68.64L109.24 67.2C110.16 66.9 109.88 65.54 108.92 65.65L107.91 65.76C107.04 65.86 106.69 64.7 107.45 64.27L114.35 60.39C115.14 59.94 114.72 58.75 113.83 58.91L104.12 60.68C103.37 60.82 102.89 59.94 103.39 59.37L116.93 44.01C117.56 43.29 116.66 42.29 115.88 42.84L94.58 57.82C94.02 58.21 93.27 57.79 93.33 57.12L94.25 45.66C94.32 44.83 93.22 44.48 92.77 45.2L87.78 53.22C87.4 53.83 86.48 53.69 86.32 53L82.01 34.66C81.79 33.74 80.43 33.92 80.43 34.87L80.46 50.16C80.46 50.95 79.45 51.28 79 50.64L69.24 36.64C68.72 35.89 67.53 36.49 67.82 37.36L72.29 51.01C72.52 51.73 71.72 52.35 71.09 51.94L49.17 37.87C48.4 37.38 47.52 38.37 48.11 39.06L60.62 53.92C61.11 54.5 60.58 55.37 59.83 55.22L52.65 53.76C51.77 53.58 51.29 54.77 52.06 55.23L59.75 59.81C60.43 60.22 60.15 61.27 59.35 61.3L34.65 62.14C33.75 62.17 33.56 63.43 34.41 63.7L47.2 67.81L0.7 62.4C-0.24 62.29 -0.22 60.92 0.73 60.81L43.29 55.87C44.04 55.78 44.28 54.8 43.65 54.4L17.03 37.56C16.26 37.07 16.81 35.87 17.69 36.11L42.88 43.17C43.67 43.39 44.26 42.41 43.68 41.83L12.76 10.62C12.1 9.96 12.95 8.88 13.75 9.37L58.41 36.18C59.03 36.55 59.8 35.96 59.6 35.26L50.15 2.19C49.9 1.32 51.07 0.76 51.58 1.5L73.3 32.75C73.73 33.37 74.71 33.08 74.76 32.33L76.81 0.78C76.87 -0.14 78.18 -0.27 78.39 0.63L87.37 39.78C87.51 40.41 88.31 40.6 88.74 40.12L101.62 25.73C102.16 25.12 103.15 25.59 103 26.39L99.67 44.54C99.54 45.24 100.32 45.74 100.91 45.32L149.17 11.39C149.94 10.85 150.84 11.82 150.24 12.55L120.73 48.01C120.26 48.58 120.73 49.42 121.46 49.3L144.1 45.71C144.98 45.57 145.38 46.75 144.6 47.19L123.83 58.89C123.07 59.32 123.42 60.47 124.29 60.38L136.93 58.99C137.89 58.88 138.16 60.24 137.25 60.54L119.53 66.42C118.77 66.67 118.79 67.75 119.56 67.95L149.96 75.74C150.86 75.97 150.68 77.33 149.75 77.37L149.74 77.34Z" fill="url(#paint0_linear_31_9)"/>
<path d="M42.63 61.6V61.09C48.84 60.83 51.13 57.73 51.13 53.35C51.13 48 47.46 45.1 40.08 45.1H18.39V79.22H41.25C49.4 79.22 52.71 75.5 52.71 69.75C52.71 65.02 49.45 61.85 42.63 61.6ZM27.9 53.71H38.8C40.78 53.71 41.55 54.32 41.55 55.9C41.55 57.48 40.99 58.04 39.05 58.04H27.9V53.71ZM40.02 70.61H27.9V65.88H40.02C42.36 65.88 43.02 66.29 43.02 68.22C43.02 70.15 42.31 70.61 40.02 70.61ZM78.18 65.47V64.96C84.7 64.15 87.4 60.93 87.4 55.54C87.4 48.87 82.66 45.11 73.65 45.11H53.73V79.23H63.31V67.62H67.23C70.95 67.62 71.96 68.34 73.19 70.88L77.26 79.23H88.31L84.09 70.68C82.81 68.08 81.7 66.4 78.18 65.48V65.47ZM73.53 60.48H63.3V53.7H73.53C76.33 53.7 77.35 54.36 77.35 57.06C77.35 59.96 76.33 60.47 73.53 60.47V60.48ZM134.24 45.1V79.22H124.67V65.11L125.02 59.41H124.36L122.43 65.11L117.33 77.18H105.72L100.62 65.11L98.69 59.41H98.03L98.39 65.11V79.22H88.81V45.1H101.79L108.06 59.26L111.42 68.07H112.08L115.29 59.26L121.25 45.1H134.23H134.24Z" fill="#0D3029"/>
</g>
<path d="M187.88 77H181.48V64.72H169.28V77H162.92V47.8H169.28V59.44H181.48V47.8H187.88V77ZM203.021 77.48C199.741 77.48 197.008 76.4667 194.821 74.44C192.635 72.4133 191.541 69.8533 191.541 66.76C191.541 63.7467 192.581 61.1867 194.661 59.08C196.741 56.9733 199.221 55.92 202.101 55.92C205.435 55.92 207.968 57.0667 209.701 59.36C211.461 61.6267 212.195 64.6267 211.901 68.36H197.381C197.701 69.64 198.421 70.6267 199.541 71.32C200.688 72.0133 202.115 72.36 203.821 72.36C204.968 72.36 206.128 72.1867 207.301 71.84C208.475 71.4667 209.488 70.9733 210.341 70.36V75.68C209.408 76.2667 208.301 76.7067 207.021 77C205.741 77.32 204.408 77.48 203.021 77.48ZM202.021 60.88C200.955 60.88 200.021 61.2 199.221 61.84C198.448 62.4533 197.888 63.3067 197.541 64.4H206.141C206.008 63.3867 205.568 62.5467 204.821 61.88C204.075 61.2133 203.141 60.88 202.021 60.88ZM215.308 77V46.6H221.548V77H215.308ZM238.594 55.92C241.394 55.92 243.741 56.96 245.634 59.04C247.528 61.0933 248.474 63.6533 248.474 66.72C248.474 69.76 247.528 72.32 245.634 74.4C243.741 76.4533 241.394 77.48 238.594 77.48C237.314 77.48 236.114 77.24 234.994 76.76C233.874 76.2533 233.008 75.6 232.394 74.8V85.4H226.154V56.4H232.394V58.6C233.034 57.8 233.901 57.16 234.994 56.68C236.114 56.1733 237.314 55.92 238.594 55.92ZM242.274 66.72C242.274 65.1733 241.794 63.88 240.834 62.84C239.874 61.8 238.688 61.28 237.274 61.28C235.834 61.28 234.634 61.8 233.674 62.84C232.714 63.8533 232.234 65.1467 232.234 66.72C232.234 68.2667 232.714 69.56 233.674 70.6C234.634 71.64 235.834 72.16 237.274 72.16C238.688 72.16 239.874 71.64 240.834 70.6C241.794 69.56 242.274 68.2667 242.274 66.72ZM264.806 62.4C264.806 64.96 265.659 67.1067 267.366 68.84C269.072 70.5467 271.192 71.4 273.726 71.4C275.139 71.4 276.459 71.1467 277.686 70.64C278.912 70.1067 279.952 69.36 280.806 68.4V75.72C279.739 76.3067 278.592 76.7467 277.366 77.04C276.166 77.3333 274.912 77.48 273.606 77.48C271.579 77.48 269.632 77.1067 267.766 76.36C265.926 75.5867 264.299 74.4933 262.886 73.08C261.446 71.6667 260.339 70.04 259.566 68.2C258.792 66.36 258.406 64.4267 258.406 62.4C258.406 60.3733 258.792 58.44 259.566 56.6C260.339 54.76 261.446 53.1333 262.886 51.72C264.299 50.3067 265.926 49.2267 267.766 48.48C269.632 47.7067 271.579 47.32 273.606 47.32C274.912 47.32 276.166 47.4667 277.366 47.76C278.592 48.0533 279.739 48.4933 280.806 49.08V56.4C279.952 55.44 278.912 54.7067 277.686 54.2C276.459 53.6667 275.139 53.4 273.726 53.4C271.192 53.4 269.072 54.2667 267.366 56C265.659 57.7067 264.806 59.84 264.806 62.4ZM294.753 77.48C291.473 77.48 288.739 76.4667 286.552 74.44C284.366 72.4133 283.272 69.8533 283.272 66.76C283.272 63.7467 284.312 61.1867 286.392 59.08C288.472 56.9733 290.952 55.92 293.833 55.92C297.166 55.92 299.699 57.0667 301.433 59.36C303.193 61.6267 303.926 64.6267 303.633 68.36H289.112C289.432 69.64 290.152 70.6267 291.272 71.32C292.419 72.0133 293.846 72.36 295.552 72.36C296.699 72.36 297.859 72.1867 299.033 71.84C300.206 71.4667 301.219 70.9733 302.073 70.36V75.68C301.139 76.2667 300.033 76.7067 298.753 77C297.472 77.32 296.139 77.48 294.753 77.48ZM293.753 60.88C292.686 60.88 291.753 61.2 290.952 61.84C290.179 62.4533 289.619 63.3067 289.272 64.4H297.873C297.739 63.3867 297.299 62.5467 296.552 61.88C295.806 61.2133 294.872 60.88 293.753 60.88ZM316.719 61.56C315.679 61.56 314.839 61.92 314.199 62.64C313.586 63.36 313.279 64.28 313.279 65.4V77H307.039V56.4H313.279V58.44C313.893 57.6667 314.693 57.0533 315.679 56.6C316.666 56.1467 317.733 55.92 318.879 55.92C321.173 55.92 322.999 56.6267 324.359 58.04C325.719 59.4267 326.399 61.3067 326.399 63.68V77H320.119V65.4C320.119 64.2533 319.813 63.3333 319.199 62.64C318.586 61.92 317.759 61.56 316.719 61.56ZM338.293 61.36V69.44C338.293 70.2933 338.52 70.96 338.973 71.44C339.453 71.8933 340.107 72.12 340.933 72.12C341.467 72.12 341.973 72.04 342.453 71.88C342.96 71.6933 343.427 71.4267 343.853 71.08V76.6C343.293 76.8667 342.64 77.08 341.893 77.24C341.173 77.4 340.44 77.48 339.693 77.48C337.347 77.48 335.48 76.8267 334.093 75.52C332.733 74.2133 332.053 72.4133 332.053 70.12V61.36H328.773V56.4H332.053V52L338.293 50.12V56.4H343.453V61.36H338.293ZM357.526 77.48C354.246 77.48 351.512 76.4667 349.326 74.44C347.139 72.4133 346.046 69.8533 346.046 66.76C346.046 63.7467 347.086 61.1867 349.166 59.08C351.246 56.9733 353.726 55.92 356.606 55.92C359.939 55.92 362.472 57.0667 364.206 59.36C365.966 61.6267 366.699 64.6267 366.406 68.36H351.886C352.206 69.64 352.926 70.6267 354.046 71.32C355.192 72.0133 356.619 72.36 358.326 72.36C359.472 72.36 360.632 72.1867 361.806 71.84C362.979 71.4667 363.992 70.9733 364.846 70.36V75.68C363.912 76.2667 362.806 76.7067 361.526 77C360.246 77.32 358.912 77.48 357.526 77.48ZM356.526 60.88C355.459 60.88 354.526 61.2 353.726 61.84C352.952 62.4533 352.392 63.3067 352.046 64.4H360.646C360.512 63.3867 360.072 62.5467 359.326 61.88C358.579 61.2133 357.646 60.88 356.526 60.88ZM382.372 56.04V62.32C380.346 62.0533 378.772 62.36 377.652 63.24C376.559 64.0933 376.012 65.4533 376.012 67.32V77H369.732V56.4H376.012V59.28C376.679 58.2133 377.572 57.4 378.692 56.84C379.812 56.2533 381.039 55.9867 382.372 56.04ZM413.822 57.12C413.822 59.9467 412.795 62.2 410.742 63.88C408.689 65.5333 405.942 66.36 402.502 66.36H399.982V77H393.622V47.8H402.502C405.942 47.8 408.689 48.64 410.742 50.32C412.795 52 413.822 54.2667 413.822 57.12ZM402.462 53H399.982V61.16H402.462C403.955 61.16 405.142 60.8 406.022 60.08C406.902 59.36 407.342 58.3733 407.342 57.12C407.342 55.84 406.902 54.84 406.022 54.12C405.169 53.3733 403.982 53 402.462 53ZM433.031 77H426.991V75.72C426.537 76.2267 425.844 76.6533 424.911 77C424.004 77.32 423.031 77.48 421.991 77.48C419.777 77.48 417.924 76.84 416.431 75.56C414.964 74.2533 414.231 72.5733 414.231 70.52C414.231 68.6 414.991 67.0133 416.511 65.76C418.031 64.5067 419.924 63.88 422.191 63.88C423.124 63.88 424.044 64.0267 424.951 64.32C425.857 64.5867 426.537 64.9333 426.991 65.36V64.48C426.991 63.4933 426.564 62.7067 425.711 62.12C424.884 61.5333 423.751 61.24 422.311 61.24C421.404 61.24 420.471 61.3867 419.511 61.68C418.551 61.9467 417.591 62.3467 416.631 62.88V57.48C417.511 57 418.591 56.6267 419.871 56.36C421.151 56.0667 422.431 55.92 423.711 55.92C426.671 55.92 428.964 56.6533 430.591 58.12C432.217 59.56 433.031 61.6 433.031 64.24V77ZM423.551 73.04C424.537 73.04 425.364 72.8133 426.031 72.36C426.724 71.88 427.071 71.2667 427.071 70.52C427.071 69.8 426.724 69.2133 426.031 68.76C425.364 68.28 424.537 68.04 423.551 68.04C422.537 68.04 421.684 68.28 420.991 68.76C420.324 69.2133 419.991 69.8 419.991 70.52C419.991 71.2667 420.324 71.88 420.991 72.36C421.684 72.8133 422.537 73.04 423.551 73.04ZM452.134 56.4H458.374V75.08C458.374 78.44 457.241 81.08 454.974 83C452.708 84.92 449.734 85.88 446.054 85.88C444.641 85.88 443.268 85.72 441.934 85.4C440.628 85.08 439.534 84.64 438.654 84.08V77.96C439.614 78.76 440.708 79.36 441.934 79.76C443.161 80.1867 444.494 80.4 445.934 80.4C447.801 80.4 449.294 79.96 450.414 79.08C451.561 78.2 452.134 77 452.134 75.48V73.84C451.468 74.64 450.588 75.28 449.494 75.76C448.401 76.2133 447.241 76.44 446.014 76.44C443.294 76.44 440.988 75.4533 439.094 73.48C437.201 71.5067 436.254 69.08 436.254 66.2C436.254 63.2933 437.201 60.8533 439.094 58.88C440.988 56.9067 443.294 55.92 446.014 55.92C447.214 55.92 448.361 56.16 449.454 56.64C450.548 57.12 451.441 57.76 452.134 58.56V56.4ZM447.334 71.12C448.694 71.12 449.841 70.6533 450.774 69.72C451.734 68.76 452.214 67.5867 452.214 66.2C452.214 64.8133 451.734 63.6533 450.774 62.72C449.841 61.7867 448.694 61.32 447.334 61.32C445.974 61.32 444.814 61.7867 443.854 62.72C442.921 63.6533 442.454 64.8133 442.454 66.2C442.454 67.5867 442.921 68.76 443.854 69.72C444.814 70.6533 445.974 71.12 447.334 71.12ZM473.228 77.48C469.948 77.48 467.215 76.4667 465.028 74.44C462.841 72.4133 461.748 69.8533 461.748 66.76C461.748 63.7467 462.788 61.1867 464.868 59.08C466.948 56.9733 469.428 55.92 472.308 55.92C475.641 55.92 478.175 57.0667 479.908 59.36C481.668 61.6267 482.401 64.6267 482.108 68.36H467.588C467.908 69.64 468.628 70.6267 469.748 71.32C470.895 72.0133 472.321 72.36 474.028 72.36C475.175 72.36 476.335 72.1867 477.508 71.84C478.681 71.4667 479.695 70.9733 480.548 70.36V75.68C479.615 76.2667 478.508 76.7067 477.228 77C475.948 77.32 474.615 77.48 473.228 77.48ZM472.228 60.88C471.161 60.88 470.228 61.2 469.428 61.84C468.655 62.4533 468.095 63.3067 467.748 64.4H476.348C476.215 63.3867 475.775 62.5467 475.028 61.88C474.281 61.2133 473.348 60.88 472.228 60.88ZM484.475 75.6V69.96C485.382 70.7867 486.462 71.4533 487.715 71.96C488.968 72.44 490.208 72.68 491.435 72.68C492.155 72.68 492.728 72.5467 493.155 72.28C493.608 72.0133 493.835 71.64 493.835 71.16C493.835 70.8133 493.742 70.5467 493.555 70.36C493.368 70.1467 492.982 69.9067 492.395 69.64L488.515 68.04C487.182 67.48 486.208 66.76 485.595 65.88C484.982 65 484.675 63.9067 484.675 62.6C484.675 60.7067 485.422 59.12 486.915 57.84C488.408 56.56 490.275 55.92 492.515 55.92C493.555 55.92 494.582 56.0667 495.595 56.36C496.608 56.6533 497.528 57.0667 498.355 57.6V63.08C497.342 62.36 496.328 61.8 495.315 61.4C494.328 61 493.408 60.8 492.555 60.8C491.888 60.8 491.368 60.9333 490.995 61.2C490.648 61.44 490.475 61.7867 490.475 62.24C490.475 62.5867 490.595 62.88 490.835 63.12C491.075 63.3333 491.568 63.6 492.315 63.92L495.875 65.44C497.208 65.9733 498.182 66.6667 498.795 67.52C499.408 68.3733 499.715 69.4533 499.715 70.76C499.715 72.7333 498.915 74.3467 497.315 75.6C495.742 76.8533 493.782 77.48 491.435 77.48C490.128 77.48 488.875 77.32 487.675 77C486.475 76.68 485.408 76.2133 484.475 75.6Z" fill="black" fill-opacity="0.58"/>
<defs>
<linearGradient id="paint0_linear_31_9" x1="72.63" y1="133.24" x2="78.24" y2="-3.22" gradientUnits="userSpaceOnUse">
<stop stop-color="#F9FF84"/>
<stop offset="0.4" stop-color="#D5FF8E"/>
<stop offset="1" stop-color="#23D97F"/>
</linearGradient>
<clipPath id="clip0_31_9">
<rect width="150.54" height="124.89" fill="white"/>
</clipPath>
</defs>
</svg>
